#!OML:ASF I:\Actors\actors\Patient Classification 2\Patient 1\Session 1\actor1.ASF
:FULLY-SPECIFIED
:DEGREES
356
root -1.05347 18.0128 6.06935 -3.7007 -3.46226 -4.89909
lowerback 4.74648 -1.67542 0.591706
upperback -1.47294 -2.06642 3.43661
thorax -4.07979 -0.998526 3.39523
lowerneck -2.54813 -3.0213 0.0804464
upperneck 35.5659 -9.72544 14.5802
head 13.2185 -2.76202 4.64651
rclavicle 3.38431e-014 -5.96354e-015
rhumerus 45.6786 -33.4079 -43.7252
rradius 116.63
rwrist -44.6823
rhand -3.14566 -16.2868
rfingers 7.12502
rthumb 22.5742 315.013
lclavicle 3.38431e-014 -5.96354e-015
lhumerus 31.8816 -10.5203 46.3625
lradius 127.764
lwrist 68.6552
lhand -16.3949 -31.6867
lfingers 7.12502
lthumb 9.81921 -1.9357
rfemur 0 0 0
rtibia 0
rfoot 0 0
rtoes 0
lfemur 24.4121 -7.28207 -12.6534
ltibia -20.0677
lfoot -4.51859 21.1961
ltoes -9.21039
357
root -1.0575 18.0148 6.07026 -3.58738 -3.50312 -4.91721
lowerback 4.66664 -1.71366 0.554089
upperback -1.51963 -2.12147 3.41555
thorax -4.07958 -1.02503 3.39703
lowerneck -2.00503 -2.99703 0.536968
upperneck 34.5847 -9.04956 13.1653
head 12.4656 -2.6224 4.00578
rclavicle -9.0944e-015 -2.82274e-014
rhumerus 46.5216 -33.7921 -48.2148
rradius 119.178
rwrist -49.7378
rhand -7.95742 -15.9401
rfingers 7.12502
rthumb 17.9498 314.868
lclavicle -9.0944e-015 -2.82274e-014
lhumerus 31.8858 -9.0476 47.1006
lradius 127.218
lwrist 69.0871
lhand -15.1042 -33.7459
lfingers 7.12502
lthumb 11.0642 -4.05756
rfemur 0 0 0
rtibia 0
rfoot 0 0
rtoes 0
lfemur 24.2745 -7.24751 -12.6029
ltibia -20.0207
lfoot -4.53982 21.2169
ltoes -9.03622
358
root -1.06286 18.0151 6.07091 -3.47793 -3.60686 -4.91603
lowerback 4.54524 -1.73333 0.497906
upperback -1.55206 -2.1538 3.40806
thorax -4.04104 -1.04006 3.41942
lowerneck -1.66127 -2.88599 0.773409
upperneck 33.626 -8.19227 11.5376
head 11.791 -2.43737 3.37086
rclavicle 1.20513e-014 -1.31198e-014
rhumerus 46.4735 -33.4822 -51.9166
rradius 121.523
rwrist -54.6955
rhand -12.8593 -15.391
rfingers 7.12502
rthumb 13.2288 315.049
lclavicle 1.20513e-014 -1.31198e-014
lhumerus 31.9441 -7.79933 47.5282
lradius 126.305
lwrist 70.1385
lhand -14.4977 -35.7105
lfingers 7.12502
lthumb 11.6492 -6.05436
rfemur 0 0 0
rtibia 0
rfoot 0 0
rtoes 0
lfemur 24.1295 -7.12495 -12.5603
ltibia -19.9222
lfoot -4.55147 21.2015
ltoes -9.21712
359
root -1.0692 18.0158 6.0721 -3.35197 -3.76429 -4.89437
lowerback 4.31877 -1.76008 0.424213
upperback -1.62692 -2.19643 3.44088
thorax -3.98437 -1.05928 3.49133
lowerneck -1.33627 -2.87396 0.849006
upperneck 32.8261 -7.41825 9.55654
head 11.225 -2.33279 2.65586
rclavicle 2.08227e-014 -1.43125e-014
rhumerus 45.5818 -32.7812 -54.7819
rradius 123.957
rwrist -57.6086
rhand -18.4035 -20.3706
rfingers 7.12502
rthumb 7.88087 309.796
lclavicle 2.08227e-014 -1.43125e-014
lhumerus 31.8964 -6.80442 47.579
lradius 125.054
lwrist 71.4908
lhand -14.496 -36.5479
lfingers 7.12502
lthumb 11.6509 -6.89186
rfemur 0 0 0
rtibia 0
rfoot 0 0
rtoes 0
lfemur 23.9599 -7.01616 -12.546
ltibia -19.7761
lfoot -4.6045 21.2417
ltoes -9.63063
360
root -1.07458 18.0188 6.07529 -3.19547 -3.9819 -4.82152
lowerback 3.9459 -1.76554 0.325995
upperback -1.71764 -2.21399 3.49503
thorax -3.86091 -1.06581 3.59168
lowerneck -1.81219 -3.14046 0.180062
upperneck 32.7762 -7.10474 7.52727
head 11.1952 -2.4766 2.0342
rclavicle 2.68359e-014 2.50469e-014
rhumerus 43.2404 -31.4532 -55.8511
rradius 125.113
rwrist -56.459
rhand -19.9419 -22.7784
rfingers 7.12502
rthumb 6.39586 307.338
lclavicle 2.68359e-014 2.50469e-014
lhumerus 31.9256 -6.10116 47.2329
lradius 123.375
lwrist 72.7179
lhand -14.8644 -35.7046
lfingers 7.12502
lthumb 11.2956 -6.02878
rfemur 0 0 0
rtibia 0
rfoot 0 0
rtoes 0
lfemur 23.7756 -6.97908 -12.6223
ltibia -19.6157
lfoot -4.75791 21.4256
ltoes -9.82959
361
root -1.07878 18.023 6.07953 -3.05497 -4.23744 -4.7562
lowerback 3.48896 -1.70667 0.287828
upperback -1.76051 -2.14692 3.49302
thorax -3.6495 -1.03356 3.5894
lowerneck -2.48831 -3.20181 0.0427512
upperneck 32.8226 -6.52503 5.37058
head 11.2241 -2.44575 1.30426
rclavicle 1.81888e-014 5.56597e-015
rhumerus 39.6169 -29.6749 -55.1838
rradius 125.723
rwrist -55.5178
rhand -19.315 -24.9469
rfingers 7.12502
rthumb 7.00112 305.189
lclavicle 1.81888e-014 5.56597e-015
lhumerus 32.3014 -5.72182 46.4758
lradius 121.291
lwrist 73.7856
lhand -14.9697 -33.397
lfingers 7.12502
lthumb 11.1939 -3.71557
rfemur 0 0 0
rtibia 0
rfoot 0 0
rtoes 0
lfemur 23.6415 -6.98126 -12.717
ltibia -19.4686
lfoot -4.98134 21.6947
ltoes -9.65219
362
root -1.08283 18.0254 6.08136 -2.99996 -4.53161 -4.75749
lowerback 3.10292 -1.61852 0.319421
upperback -1.76973 -2.03719 3.46377
thorax -3.44933 -0.981979 3.51989
lowerneck -2.97928 -3.2009 -0.346887
upperneck 32.6562 -5.99899 3.88782
head 11.1842 -2.41066 0.869014
rclavicle -2.25124e-014 2.26615e-014
rhumerus 35.5754 -27.6502 -53.4912
rradius 125.899
rwrist -55.3204
rhand -15.312 -29.5696
rfingers 7.12502
rthumb 10.8638 300.731
lclavicle -2.25124e-014 2.26615e-014
lhumerus 32.814 -5.49596 45.3247
lradius 118.997
lwrist 74.9862
lhand -14.2938 -29.7683
lfingers 7.12502
lthumb 11.8458 -0.123384
rfemur 0 0 0
rtibia 0
rfoot 0 0
rtoes 0
lfemur 23.6211 -6.93311 -12.7288
ltibia -19.3475
lfoot -5.17772 21.9139
ltoes -9.40128
363
root -1.08542 18.0235 6.07876 -3.08161 -4.8986 -4.81936
lowerback 2.92645 -1.49574 0.449236
upperback -1.75429 -1.87295 3.42677
thorax -3.34834 -0.904483 3.39226
lowerneck -3.37491 -3.22044 -0.513195
upperneck 32.3069 -5.51209 2.36752
head 11.0577 -2.37745 0.383923
rclavicle -1.63003e-014 1.19271e-014
rhumerus 31.0611 -24.7134 -50.6135
rradius 125.807
rwrist -56.5604
rhand -13.7847 -32.1604
rfingers 7.12502
rthumb 12.3367 298.224
lclavicle -1.63003e-014 1.19271e-014
lhumerus 33.3696 -5.35786 43.7707
lradius 116.481
lwrist 76.5494
lhand -12.7375 -25.5841
lfingers 7.12502
lthumb 13.3463 3.96851
rfemur 0 0 0
rtibia 0
rfoot 0 0
rtoes 0
lfemur 23.7571 -6.74085 -12.6622
ltibia -19.2564
lfoot -5.33969 22.0454
ltoes -9.24832
364
root -1.08439 18.0192 6.07263 -3.27841 -5.2637 -4.85079
lowerback 2.91349 -1.32715 0.629326
upperback -1.67498 -1.64498 3.33593
thorax -3.27886 -0.7967 3.18151
lowerneck -3.88407 -3.29306 -0.592768
upperneck 31.9841 -5.15181 0.941646
head 10.9777 -2.3794 -0.0923159
rclavicle -3.00662e-014 2.78299e-015
rhumerus 26.9708 -21.8815 -47.7067
rradius 125.597
rwrist -58.4939
rhand -10.2172 -37.2405
rfingers 7.12502
rthumb 15.7745 293.382
lclavicle -3.00662e-014 2.78299e-015
lhumerus 34.1405 -5.32087 41.844
lradius 113.733
lwrist 78.3983
lhand -10.2582 -21.6622
lfingers 7.12502
lthumb 15.735 7.71814
rfemur 0 0 0
rtibia 0
rfoot 0 0
rtoes 0
lfemur 24.0169 -6.58692 -12.6666
ltibia -19.1944
lfoot -5.50946 22.1874
ltoes -9.01788
